HIERARCHY
ROOT Pelvis
{
	OFFSET 0.000000 0.000000 0.000000
	CHANNELS 6 Xposition Yposition Zposition Xrotation Yrotation Zrotation
	JOINT LeftUpLeg_virtual
	{
		OFFSET 0.000000 0.000000 0.000000
		CHANNELS 3 Xrotation Yrotation Zrotation
		JOINT LeftUpLeg
		{
			OFFSET 18.735201 -5.666702 -4.541200
			CHANNELS 3 Xrotation Yrotation Zrotation
			JOINT LeftLeg
			{
				OFFSET -0.021200 -31.938179 0.493100
				CHANNELS 3 Xrotation Yrotation Zrotation
				JOINT LeftFoot
				{
					OFFSET 0.021200 -31.938179 -4.336299
					CHANNELS 3 Xrotation Yrotation Zrotation
					JOINT LeftToeBase
					{
						OFFSET 0.943001 -26.722000 15.023500
						CHANNELS 3 Xrotation Yrotation Zrotation
						End Site
						{
							OFFSET 0 0 0
						}
					}
				}
			}
		}
	}
	JOINT RightUpLeg_virtual
	{
		OFFSET 0.000000 0.000000 0.000000
		CHANNELS 3 Xrotation Yrotation Zrotation
		JOINT RightUpLeg
		{
			OFFSET -18.735201 -5.666702 -4.541200
			CHANNELS 3 Xrotation Yrotation Zrotation
			JOINT RightLeg
			{
				OFFSET 0.018946 -31.938133 0.493100
				CHANNELS 3 Xrotation Yrotation Zrotation
				JOINT RightFoot
				{
					OFFSET -0.018946 -31.938126 -4.336299
					CHANNELS 3 Xrotation Yrotation Zrotation
					JOINT RightToeBase
					{
						OFFSET -0.943001 -26.722004 15.023500
						CHANNELS 3 Xrotation Yrotation Zrotation
						End Site
						{
							OFFSET 0 0 0
						}
					}
				}
			}
		}
	}
	JOINT Hips_virtual
	{
		OFFSET 0.000000 0.000000 0.000000
		CHANNELS 3 Xrotation Yrotation Zrotation
		JOINT Hips
		{
			OFFSET -0.000000 -0.000000 -0.000000
			CHANNELS 3 Xrotation Yrotation Zrotation
			JOINT Spine
			{
				OFFSET 0.000000 10.199997 -0.299500
				CHANNELS 3 Xrotation Yrotation Zrotation
				JOINT Spine1
				{
					OFFSET 0.000000 11.900002 -1.516600
					CHANNELS 3 Xrotation Yrotation Zrotation
					JOINT Spine2
					{
						OFFSET 0.000000 13.600006 -2.842500
						CHANNELS 3 Xrotation Yrotation Zrotation
						JOINT Neck_virtual
						{
							OFFSET 0.000000 0.000000 0.000000
							CHANNELS 3 Xrotation Yrotation Zrotation
							JOINT Neck
							{
								OFFSET 0.000000 9.624100 -2.890100
								CHANNELS 3 Xrotation Yrotation Zrotation
								JOINT Head
								{
									OFFSET 0.000000 14.068802 -1.351900
									CHANNELS 3 Xrotation Yrotation Zrotation
									End Site
									{
										OFFSET 0 0 0
									}
								}
							}
						}
						JOINT LeftShoulder_virtual
						{
							OFFSET 0.000000 0.000000 0.000000
							CHANNELS 3 Xrotation Yrotation Zrotation
							JOINT LeftShoulder
							{
								OFFSET 15.263000 10.923401 -0.547700
								CHANNELS 3 Xrotation Yrotation Zrotation
								JOINT LeftArm
								{
									OFFSET 25.438599 -2.830597 -13.032500
									CHANNELS 3 Xrotation Yrotation Zrotation
									JOINT LeftForeArm
									{
										OFFSET 29.960503 0.000000 0.000000
										CHANNELS 3 Xrotation Yrotation Zrotation
										JOINT LeftHand
										{
											OFFSET 27.849251 0.000000 0.000000
											CHANNELS 3 Xrotation Yrotation Zrotation
											End Site
											{
												OFFSET 0 0 0
											}
										}
									}
								}
							}
						}
						JOINT RightShoulder_virtual
						{
							OFFSET 0.000000 0.000000 0.000000
							CHANNELS 3 Xrotation Yrotation Zrotation
							JOINT RightShoulder
							{
								OFFSET -15.263000 10.923401 -0.547700
								CHANNELS 3 Xrotation Yrotation Zrotation
								JOINT RightArm
								{
									OFFSET -25.438599 -2.830597 -13.032500
									CHANNELS 3 Xrotation Yrotation Zrotation
									JOINT RightForeArm
									{
										OFFSET -29.960503 0.000000 0.000000
										CHANNELS 3 Xrotation Yrotation Zrotation
										JOINT RightHand
										{
											OFFSET -27.849251 0.000000 0.000000
											CHANNELS 3 Xrotation Yrotation Zrotation
											End Site
											{
												OFFSET 0 0 0
											}
										}
									}
								}
							}
						}
					}
				}
			}
		}
	}
}
MOTION
Frames: 11
Frame Time: 0.03333333
1.597873 58.440052 -4.030556 0.000000 0.000000 0.000000 -178.073086 -15.485439 150.363664 -126.310866 -5.073765 52.557380 82.491794 -4.901550 -1.171608 11.260373 -4.598495 -11.536858 0.000000 0.000000 0.000000 176.570226 27.486846 172.229067 -76.095363 42.649924 -6.761669 63.382018 9.433250 7.182537 -8.194184 -0.866788 27.638461 0.000000 0.000000 0.000000 30.660729 67.301098 -19.803812 178.793070 61.817153 163.134533 9.654332 8.168706 -3.643669 6.415882 4.892751 -3.751500 0.000000 0.000000 0.000000 7.121685 9.569119 -2.499560 0.289712 5.661098 -0.478660 0.000000 0.000000 0.000000 10.172351 5.176474 -5.026535 1.458018 -8.969233 -3.715158 28.332953 -15.933197 -39.088527 20.210299 -32.561930 -0.495252 0.000000 0.000000 0.000000 7.821158 4.443640 -0.879084 3.279409 -8.489985 7.887469 37.318596 2.011125 49.803984 11.975080 52.967386 8.904450 0.000000 0.000000 0.000000 
1.600485 58.440643 -4.028626 0.000000 0.000000 0.000000 -178.107414 -15.527614 150.326398 -126.342804 -5.077610 52.543563 82.495489 -4.904658 -1.166770 11.265609 -4.604422 -11.534267 0.000000 0.000000 0.000000 176.545650 27.473195 172.233930 -76.091572 42.662345 -6.799217 63.375065 9.426715 7.179783 -8.192084 -0.868264 27.631506 0.000000 0.000000 0.000000 30.651119 67.288155 -19.796933 178.728319 61.802536 163.191934 9.635993 8.165146 -3.646100 6.404099 4.891723 -3.752673 0.000000 0.000000 0.000000 7.108276 9.566449 -2.499040 0.285556 5.660232 -0.479714 0.000000 0.000000 0.000000 10.153274 5.173019 -5.025455 1.450078 -8.985180 -3.709313 28.340468 -15.936445 -39.100866 20.215881 -32.539223 -0.510934 0.000000 0.000000 0.000000 7.808977 4.440570 -0.879972 3.278785 -8.487509 7.875279 37.343383 2.048766 49.806976 11.992437 52.983608 8.905833 0.000000 0.000000 0.000000 
1.601958 58.441444 -4.027614 0.000000 0.000000 0.000000 -178.136634 -15.570164 150.289392 -126.372925 -5.084058 52.530886 82.498904 -4.908263 -1.162192 11.270860 -4.610655 -11.532427 0.000000 0.000000 0.000000 176.524969 27.460188 172.238506 -76.088376 42.672263 -6.831526 63.367729 9.418938 7.176836 -8.190368 -0.870584 27.623290 0.000000 0.000000 0.000000 30.642944 67.276038 -19.791404 178.667135 61.788760 163.245087 9.619802 8.161440 -3.648440 6.393808 4.890604 -3.753811 0.000000 0.000000 0.000000 7.096909 9.563690 -2.498681 0.282299 5.659176 -0.480751 0.000000 0.000000 0.000000 10.135595 5.169873 -5.024574 1.442523 -9.001470 -3.703608 28.346192 -15.941226 -39.114390 20.220806 -32.518244 -0.527144 0.000000 0.000000 0.000000 7.797911 4.437337 -0.880643 3.278570 -8.487062 7.863754 37.369635 2.085927 49.808922 12.010579 52.998238 8.906916 0.000000 0.000000 0.000000 
1.602330 58.442413 -4.027819 0.000000 0.000000 0.000000 -178.160239 -15.613604 150.252059 -126.401257 -5.093620 52.519261 82.502128 -4.912409 -1.157862 11.276241 -4.617254 -11.531363 0.000000 0.000000 0.000000 176.508590 27.447754 172.242604 -76.086224 42.679448 -6.857941 63.360182 9.410186 7.173874 -8.189117 -0.873713 27.614190 0.000000 0.000000 0.000000 30.636387 67.264905 -19.787318 178.610444 61.776199 163.293431 9.605952 8.157749 -3.650506 6.385112 4.889478 -3.754803 0.000000 0.000000 0.000000 7.087662 9.560997 -2.498542 0.279957 5.657984 -0.481788 0.000000 0.000000 0.000000 10.119385 5.167116 -5.023814 1.435383 -9.018134 -3.697674 28.349194 -15.947102 -39.128917 20.224569 -32.499024 -0.543827 0.000000 0.000000 0.000000 7.788092 4.433996 -0.881085 3.278794 -8.488630 7.853027 37.397109 2.122110 49.809861 12.029362 53.010604 8.907799 0.000000 0.000000 0.000000 
1.601676 58.443489 -4.029461 0.000000 0.000000 0.000000 -178.177724 -15.658663 150.213318 -126.427881 -5.106959 52.508469 82.505277 -4.917254 -1.153732 11.281862 -4.624389 -11.531164 0.000000 0.000000 0.000000 176.496883 27.435782 172.246046 -76.085603 42.683696 -6.877806 63.352812 9.400691 7.171087 -8.188296 -0.877634 27.604554 0.000000 0.000000 0.000000 30.631626 67.254831 -19.784756 178.559750 61.764820 163.335901 9.594594 8.154275 -3.652001 6.378093 4.888444 -3.755477 0.000000 0.000000 0.000000 7.080681 9.558533 -2.498608 0.278582 5.656721 -0.482800 0.000000 0.000000 0.000000 10.104736 5.164823 -5.023052 1.428728 -9.035231 -3.690941 28.348610 -15.953606 -39.144077 20.226738 -32.481596 -0.560819 0.000000 0.000000 0.000000 7.779611 4.430596 -0.881287 3.279441 -8.492223 7.843227 37.425390 2.156562 49.809824 12.048526 53.019880 8.908610 0.000000 0.000000 0.000000 
1.600117 58.444584 -4.032640 0.000000 0.000000 0.000000 -178.188721 -15.706170 150.171736 -126.453057 -5.124792 52.498094 82.508583 -4.923057 -1.149730 11.287815 -4.632326 -11.531991 0.000000 0.000000 0.000000 176.490244 27.424082 172.248587 -76.087092 42.684837 -6.890417 63.346275 9.390633 7.168626 -8.187799 -0.882353 27.594676 0.000000 0.000000 0.000000 30.628863 67.246245 -19.783848 178.516993 61.754240 163.370885 9.585829 8.151218 -3.652574 6.372807 4.887604 -3.755633 0.000000 0.000000 0.000000 7.076150 9.556467 -2.498787 0.278247 5.655444 -0.483721 0.000000 0.000000 0.000000 10.091785 5.163067 -5.022135 1.422679 -9.052829 -3.682744 28.343695 -15.960245 -39.159394 20.226950 -32.466027 -0.577878 0.000000 0.000000 0.000000 7.772529 4.427202 -0.881244 3.280471 -8.497819 7.834456 37.454012 2.188357 49.808820 12.067809 53.025094 8.909444 0.000000 0.000000 0.000000 
1.597831 58.445518 -4.037317 0.000000 0.000000 0.000000 -178.192997 -15.756925 150.125741 -126.477113 -5.147784 52.487699 82.512305 -4.930136 -1.145790 11.294170 -4.641371 -11.534056 0.000000 0.000000 0.000000 176.488946 27.412404 172.250035 -76.091299 42.682771 -6.895132 63.341289 9.380116 7.166591 -8.187426 -0.887884 27.584738 0.000000 0.000000 0.000000 30.628293 67.239579 -19.784760 178.484195 61.743749 163.396471 9.579737 8.148769 -3.651901 6.369302 4.887048 -3.755092 0.000000 0.000000 0.000000 7.074214 9.554957 -2.498934 0.279012 5.654212 -0.484455 0.000000 0.000000 0.000000 10.080720 5.161902 -5.020919 1.417395 -9.071023 -3.672435 28.333914 -15.966607 -39.174389 20.224953 -32.452319 -0.594748 0.000000 0.000000 0.000000 7.766908 4.423874 -0.880958 3.281844 -8.505366 7.826804 37.482517 2.216576 49.806829 12.086967 53.025306 8.910355 0.000000 0.000000 0.000000 
1.595050 58.446045 -4.043328 0.000000 0.000000 0.000000 -178.190538 -15.811512 150.073982 -126.500376 -5.176369 52.476842 82.516704 -4.938792 -1.141865 11.300966 -4.651804 -11.537594 0.000000 0.000000 0.000000 176.493236 27.400436 172.250213 -76.098751 42.677563 -6.891394 63.338687 9.369174 7.164992 -8.186968 -0.894245 27.574773 0.000000 0.000000 0.000000 30.630113 67.235364 -19.787736 178.463130 61.732452 163.410773 9.576391 8.147086 -3.649759 6.367623 4.886859 -3.753738 0.000000 0.000000 0.000000 7.074943 9.554138 -2.498897 0.280901 5.653062 -0.484904 0.000000 0.000000 0.000000 10.071745 5.161369 -5.019295 1.413053 -9.089921 -3.659515 28.318900 -15.972348 -39.188695 20.220574 -32.440530 -0.611206 0.000000 0.000000 0.000000 7.762838 4.420690 -0.880436 3.283549 -8.514752 7.820358 37.510514 2.240467 49.803830 12.105799 53.019760 8.911384 0.000000 0.000000 0.000000 
1.592042 58.445835 -4.050426 0.000000 0.000000 0.000000 -178.181549 -15.870103 150.015693 -126.523080 -5.210629 52.465224 82.522025 -4.949234 -1.137951 11.308217 -4.663799 -11.542794 0.000000 0.000000 0.000000 176.503139 27.387858 172.249106 -76.109781 42.669370 -6.878861 63.339145 9.357760 7.163751 -8.186230 -0.901450 27.564673 0.000000 0.000000 0.000000 30.634594 67.234067 -19.793084 178.455030 61.719611 163.412262 9.575877 8.146285 -3.646087 6.367829 4.887093 -3.751546 0.000000 0.000000 0.000000 7.078297 9.554112 -2.498567 0.283883 5.652025 -0.484996 0.000000 0.000000 0.000000 10.065097 5.161485 -5.017216 1.409824 -9.109621 -3.643747 28.298427 -15.977255 -39.202158 20.213684 -32.430729 -0.627100 0.000000 0.000000 0.000000 7.760421 4.417733 -0.879688 3.285600 -8.525802 7.815212 37.537661 2.259543 49.799831 12.124137 53.007893 8.912582 0.000000 0.000000 0.000000 
1.589055 58.444572 -4.058339 0.000000 0.000000 0.000000 -178.166454 -15.932376 149.950847 -126.545264 -5.250246 52.452690 82.528397 -4.961507 -1.134088 11.315900 -4.677356 -11.549749 0.000000 0.000000 0.000000 176.518576 27.374387 172.246798 -76.124391 42.658517 -6.857479 63.343147 9.345792 7.162725 -8.185082 -0.909498 27.554213 0.000000 0.000000 0.000000 30.642090 67.236082 -19.801210 178.460412 61.704646 163.400091 9.578292 8.146437 -3.640983 6.369986 4.887787 -3.748583 0.000000 0.000000 0.000000 7.084151 9.554958 -2.497924 0.287884 5.651118 -0.484707 0.000000 0.000000 0.000000 10.060983 5.162247 -5.014716 1.407844 -9.130178 -3.625222 28.272352 -15.981253 -39.214852 20.204162 -32.423041 -0.642369 0.000000 0.000000 0.000000 7.759775 4.415084 -0.878735 3.288027 -8.538331 7.811431 37.563592 2.273590 49.794937 12.141775 52.989434 8.914059 0.000000 0.000000 0.000000 
1.586260 58.442036 -4.066846 0.000000 0.000000 0.000000 -178.145923 -15.997480 149.880196 -126.566738 -5.294451 52.439249 82.535856 -4.975448 -1.130353 11.323930 -4.692281 -11.558401 0.000000 0.000000 0.000000 176.539271 27.359839 172.243588 -76.142239 42.645379 -6.827521 63.350899 9.333185 7.161759 -8.183489 -0.918371 27.543154 0.000000 0.000000 0.000000 30.653049 67.241778 -19.812570 178.479209 61.687291 163.374177 9.583742 8.147584 -3.634677 6.374166 4.888962 -3.744993 0.000000 0.000000 0.000000 7.092354 9.556723 -2.497051 0.292810 5.650350 -0.484070 0.000000 0.000000 0.000000 10.059572 5.163656 -5.011909 1.407188 -9.151561 -3.604365 28.240595 -15.984338 -39.227026 20.191923 -32.417642 -0.657022 0.000000 0.000000 0.000000 7.760989 4.412811 -0.877611 3.290843 -8.552183 7.809021 37.587894 2.282560 49.789241 12.158427 52.964272 8.915986 0.000000 0.000000 0.000000 
